<?xml version="1.0" encoding="utf-8"?>
<!-- Generator: Adobe Illustrator 18.0.0, SVG Export Plug-In . SVG Version: 6.00 Build 0)  -->
<!DOCTYPE svg PUBLIC "-//W3C//DTD SVG 1.1//EN" "http://www.w3.org/Graphics/SVG/1.1/DTD/svg11.dtd">
<svg version="1.1" id="Layer_1" xmlns="http://www.w3.org/2000/svg" xmlns:xlink="http://www.w3.org/1999/xlink" x="0px" y="0px"
	 viewBox="0 0 128 143.2" enable-background="new 0 0 128 143.2" xml:space="preserve">
<g>
	<path d="M86.4,113.7c-1.7,0-2.7,1.7-2.7,4c0,2.4,1,4,2.7,4h0c1.7,0,2.7-1.6,2.7-4C89.1,115.4,88.1,113.7,86.4,113.7z"/>
	<path d="M79.6,99.9c-0.2-0.7-0.4-1.8-0.6-2.6h0c-0.2,0.8-0.4,1.8-0.6,2.6l-0.6,2.4h2.4L79.6,99.9z"/>
	<path d="M66.3,97.2c-0.7,0-1,0-1.2,0.1v3.1H66c1.3,0,2.1-0.6,2.1-1.6C68.1,97.8,67.5,97.2,66.3,97.2z"/>
	<path d="M90.9,80.8c-0.7,0-1,0-1.2,0.1V84h0.9c1.3,0,2.1-0.6,2.1-1.6C92.7,81.4,92.1,80.8,90.9,80.8z"/>
	<path d="M114.9,66.1c0-1-0.6-1.6-2-1.6c-0.5,0-0.9,0-1,0.1v3.3c0.2,0,0.4,0,0.8,0C114,68,114.9,67.3,114.9,66.1z"/>
	<path d="M100.1,72.5L100.1,72.5c1.7,0,2.7-1.6,2.7-4c0-2.3-1-4-2.7-4c-1.7,0-2.7,1.7-2.7,4C97.3,70.9,98.4,72.5,100.1,72.5z"/>
	<path d="M28.5,97.3c-1.7,0-2.7,1.7-2.7,4c0,2.4,1,4,2.7,4h0c1.7,0,2.7-1.6,2.7-4C31.2,99,30.2,97.3,28.5,97.3z"/>
	<g>
		<path opacity="0.12" d="M128,143.2L128,0H1v119.6L128,143.2z M68.5,107.8c-0.2-0.4-0.5-1.4-0.9-3c-0.4-1.6-0.8-1.9-1.9-1.9h-0.6
			v4.9h-3.5V94.9c1-0.2,2.5-0.3,4.2-0.3c2,0,3.4,0.3,4.4,1c0.8,0.6,1.3,1.6,1.3,2.8c0,1.6-1.2,2.8-2.2,3.2v0.1
			c0.9,0.4,1.3,1.2,1.7,2.4c0.4,1.3,0.8,3.2,1.1,3.8H68.5z M81.5,88.7c0.8,0,1.8-0.2,2.3-0.4l0.5,2.7c-0.5,0.3-1.7,0.5-3.3,0.5
			c-4.9,0-7.1-3.1-7.1-6.5c0-4.6,3.4-7,7.3-7c1.5,0,2.7,0.3,3.3,0.6l-0.7,2.8c-0.6-0.2-1.4-0.5-2.4-0.5c-2,0-3.8,1.2-3.8,3.9
			C77.7,87.3,79.1,88.7,81.5,88.7z M76.7,94.7h4.7l3.9,13.1h-3.8l-0.8-3h-3.4l-0.7,3h-3.6L76.7,94.7z M76.7,124.4L76.7,124.4
			c-1.2,0-2-0.8-2-2c0-1.2,0.8-2,2-2c1.2,0,2,0.8,2,2C78.7,123.6,77.9,124.4,76.7,124.4z M86.2,124.4L86.2,124.4
			c-4.1,0-6.3-3.1-6.3-6.7c0-3.8,2.5-6.9,6.5-6.9c4.2,0,6.4,3.1,6.4,6.6C92.8,121.8,90.3,124.4,86.2,124.4z M85.8,101.5
			c0-4.6,3.4-7,7.3-7c1.5,0,2.7,0.3,3.3,0.6l-0.7,2.8c-0.6-0.2-1.4-0.5-2.4-0.5c-2,0-3.8,1.2-3.8,3.9c0,2.4,1.4,3.9,3.8,3.9
			c0.8,0,1.8-0.2,2.3-0.4l0.5,2.7c-0.5,0.3-1.7,0.5-3.3,0.5C88,108,85.8,105,85.8,101.5z M95.6,87.7c0.4,1.3,0.8,3.2,1.1,3.8h-3.6
			c-0.2-0.4-0.5-1.4-0.9-3c-0.4-1.6-0.8-1.9-1.9-1.9h-0.6v4.9h-3.5V78.5c1-0.2,2.5-0.3,4.2-0.3c2,0,3.4,0.3,4.4,1
			c0.8,0.6,1.3,1.6,1.3,2.8c0,1.6-1.2,2.8-2.2,3.2v0.1C94.8,85.7,95.3,86.6,95.6,87.7z M101.6,124.2c-0.2-0.4-0.5-1.4-0.9-3
			c-0.4-1.6-0.8-1.9-1.9-1.9h-0.6v4.9h-3.5v-12.9c1-0.2,2.5-0.3,4.2-0.3c2,0,3.4,0.3,4.4,1c0.8,0.6,1.3,1.6,1.3,2.8
			c0,1.6-1.2,2.8-2.2,3.2v0.1c0.9,0.4,1.3,1.2,1.7,2.4c0.4,1.3,0.8,3.2,1.1,3.8H101.6z M117.9,123.6c-1,0.3-2.8,0.7-4.5,0.7
			c-2.6,0-4.3-0.6-5.5-1.8c-1.2-1.2-1.9-2.9-1.9-4.7c0-4.6,3.4-6.9,7.7-6.9c1.8,0,3.1,0.3,3.8,0.6l-0.7,2.8
			c-0.7-0.3-1.6-0.6-3.1-0.6c-2.2,0-4,1.1-4,3.8c0,2.5,1.6,3.9,3.7,3.9c0.5,0,0.9,0,1.1-0.1v-2.3h-1.8v-2.7h5.1V123.6z M112.6,108
			c-1.6,0-3.1-0.4-3.9-0.8l0.7-2.9c0.8,0.4,2.1,0.8,3.4,0.8c1.2,0,1.8-0.4,1.8-1.1c0-0.6-0.6-1-2.1-1.5c-2.2-0.8-3.7-2-3.7-4
			c0-2.3,2-4.1,5.3-4.1c1.6,0,2.7,0.3,3.5,0.7l-0.7,2.8c-0.6-0.3-1.5-0.6-2.8-0.6c-1.1,0-1.7,0.4-1.7,1c0,0.7,0.7,0.9,2.4,1.5
			c2.4,0.9,3.4,2.1,3.4,4C118.2,106.1,116.4,108,112.6,108z M108.4,62.1c1-0.2,2.3-0.3,4.3-0.3c1.9,0,3.2,0.4,4.2,1.1
			c0.9,0.7,1.5,1.8,1.5,3.2c0,1.3-0.4,2.5-1.3,3.2c-1.1,0.9-2.6,1.4-4.4,1.4c-0.4,0-0.6,0-0.9,0v4.5h-3.5V62.1z M108.2,78.3h10.3v3
			h-3.4v10.2h-3.5V81.3h-3.3V78.3z M107.7,97.7h-3.4v10.2h-3.5V97.7h-3.3v-3h10.3V97.7z M106.5,83.3v2.8h-4.7v2.4h5.3v2.9h-8.8V78.3
			h8.5v2.9h-5v2.1H106.5z M100.1,61.7c4.2,0,6.4,3.1,6.4,6.6c0,4.2-2.5,6.9-6.6,6.9h0c-4.1,0-6.3-3.1-6.3-6.7
			C93.6,64.8,96.1,61.7,100.1,61.7z M82.8,62h10.3v3h-3.4v10.2h-3.5V64.9h-3.3V62z M76.1,69.8c-2.2-0.8-3.7-2-3.7-4
			c0-2.3,2-4.1,5.3-4.1c1.6,0,2.7,0.3,3.5,0.7l-0.7,2.8c-0.6-0.3-1.5-0.6-2.8-0.6c-1.1,0-1.7,0.4-1.7,1c0,0.7,0.7,0.9,2.4,1.5
			c2.4,0.9,3.4,2.1,3.4,4c0,2.3-1.8,4.2-5.6,4.2c-1.6,0-3.1-0.4-3.9-0.8l0.7-2.9c0.8,0.4,2.1,0.8,3.4,0.8c1.2,0,1.8-0.4,1.8-1.1
			C78.2,70.7,77.6,70.3,76.1,69.8z M63.8,78.3h8.5v2.9h-5v2.1H72v2.8h-4.7v2.4h5.3v2.9h-8.8V78.3z M56.2,86.2c-2.2-0.8-3.7-2-3.7-4
			c0-2.3,2-4.1,5.3-4.1c1.6,0,2.7,0.3,3.5,0.7l-0.7,2.8C60,81.4,59.1,81,57.8,81c-1.1,0-1.7,0.4-1.7,1c0,0.7,0.7,0.9,2.4,1.5
			c2.4,0.9,3.4,2.1,3.4,4c0,2.3-1.8,4.2-5.6,4.2c-1.6,0-3.1-0.4-3.9-0.8l0.7-2.9c0.8,0.4,2.1,0.8,3.4,0.8c1.2,0,1.8-0.4,1.8-1.1
			C58.3,87.1,57.7,86.7,56.2,86.2z M49.7,94.7H60v3h-3.4v10.2h-3.5V97.7h-3.3V94.7z M36.8,94.7H41l2.1,4c0.7,1.3,1.5,3.1,2.1,4.6
			h0.1c-0.2-1.7-0.3-3.6-0.3-5.5v-3.1h3.2v13.1h-3.7l-2.2-4.4c-0.7-1.4-1.6-3.2-2.2-4.7h-0.1c0.1,1.8,0.1,3.7,0.1,5.9v3.2h-3.2V94.7
			z M28.6,94.5c4.2,0,6.4,3.1,6.4,6.6c0,4.2-2.5,6.9-6.6,6.9h0c-4.1,0-6.3-3.1-6.3-6.7C22.1,97.5,24.5,94.5,28.6,94.5z M18.3,94.5
			c1.5,0,2.7,0.3,3.3,0.6l-0.7,2.8c-0.6-0.2-1.4-0.5-2.4-0.5c-2,0-3.8,1.2-3.8,3.9c0,2.4,1.4,3.9,3.8,3.9c0.8,0,1.8-0.2,2.3-0.4
			l0.5,2.7c-0.5,0.3-1.7,0.5-3.3,0.5c-4.9,0-7.1-3.1-7.1-6.5C11,96.9,14.4,94.5,18.3,94.5z"/>
	</g>
	<path d="M99.3,113.6c-0.7,0-1,0-1.2,0.1v3.1h0.9c1.3,0,2.1-0.6,2.1-1.6S100.5,113.6,99.3,113.6z"/>
</g>
<polygon fill="#353639" points="6,113.2 119,135.5 119,52.6 6,52.6 "/>
<g>
	<path fill="#FFFFFF" d="M85.4,111.7c-1.7,0-2.7,1.7-2.7,4c0,2.4,1,4,2.7,4h0c1.7,0,2.7-1.6,2.7-4C88.1,113.4,87.1,111.7,85.4,111.7
		z"/>
	<path fill="#FFFFFF" d="M78.6,97.9c-0.2-0.7-0.4-1.8-0.6-2.6h0c-0.2,0.8-0.4,1.8-0.6,2.6l-0.6,2.4h2.4L78.6,97.9z"/>
	<path fill="#FFFFFF" d="M65.3,95.2c-0.7,0-1,0-1.2,0.1v3.1H65c1.3,0,2.1-0.6,2.1-1.6C67.1,95.8,66.5,95.2,65.3,95.2z"/>
	<path fill="#FFFFFF" d="M89.9,78.8c-0.7,0-1,0-1.2,0.1V82h0.9c1.3,0,2.1-0.6,2.1-1.6C91.7,79.4,91.1,78.8,89.9,78.8z"/>
	<path fill="#FFFFFF" d="M113.9,64.1c0-1-0.6-1.6-2-1.6c-0.5,0-0.9,0-1,0.1v3.3c0.2,0,0.4,0,0.8,0C113,66,113.9,65.3,113.9,64.1z"/>
	<path fill="#FFFFFF" d="M99.1,70.5L99.1,70.5c1.7,0,2.7-1.6,2.7-4c0-2.3-1-4-2.7-4c-1.7,0-2.7,1.7-2.7,4
		C96.3,68.9,97.4,70.5,99.1,70.5z"/>
	<path fill="#FFFFFF" d="M27.5,95.3c-1.7,0-2.7,1.7-2.7,4c0,2.4,1,4,2.7,4h0c1.7,0,2.7-1.6,2.7-4C30.2,97,29.2,95.3,27.5,95.3z"/>
	<g>
		<path fill="#FFFFFF" d="M127,141.2L127,0H0v117.6L127,141.2z M67.5,105.8c-0.2-0.4-0.5-1.4-0.9-3c-0.4-1.6-0.8-1.9-1.9-1.9h-0.6
			v4.9h-3.5V92.9c1-0.2,2.5-0.3,4.2-0.3c2,0,3.4,0.3,4.4,1c0.8,0.6,1.3,1.6,1.3,2.8c0,1.6-1.2,2.8-2.2,3.2v0.1
			c0.9,0.4,1.3,1.2,1.7,2.4c0.4,1.3,0.8,3.2,1.1,3.8H67.5z M80.5,86.7c0.8,0,1.8-0.2,2.3-0.4l0.5,2.7c-0.5,0.3-1.7,0.5-3.3,0.5
			c-4.9,0-7.1-3.1-7.1-6.5c0-4.6,3.4-7,7.3-7c1.5,0,2.7,0.3,3.3,0.6l-0.7,2.8c-0.6-0.2-1.4-0.5-2.4-0.5c-2,0-3.8,1.2-3.8,3.9
			C76.7,85.3,78.1,86.7,80.5,86.7z M75.7,92.7h4.7l3.9,13.1h-3.8l-0.8-3h-3.4l-0.7,3h-3.6L75.7,92.7z M75.7,122.4L75.7,122.4
			c-1.2,0-2-0.8-2-2c0-1.2,0.8-2,2-2c1.2,0,2,0.8,2,2C77.7,121.6,76.9,122.4,75.7,122.4z M85.2,122.4L85.2,122.4
			c-4.1,0-6.3-3.1-6.3-6.7c0-3.8,2.5-6.9,6.5-6.9c4.2,0,6.4,3.1,6.4,6.6C91.8,119.8,89.3,122.4,85.2,122.4z M84.8,99.5
			c0-4.6,3.4-7,7.3-7c1.5,0,2.7,0.3,3.3,0.6l-0.7,2.8c-0.6-0.2-1.4-0.5-2.4-0.5c-2,0-3.8,1.2-3.8,3.9c0,2.4,1.4,3.9,3.8,3.9
			c0.8,0,1.8-0.2,2.3-0.4l0.5,2.7c-0.5,0.3-1.7,0.5-3.3,0.5C87,106,84.8,103,84.8,99.5z M94.6,85.7c0.4,1.3,0.8,3.2,1.1,3.8h-3.6
			c-0.2-0.4-0.5-1.4-0.9-3c-0.4-1.6-0.8-1.9-1.9-1.9h-0.6v4.9h-3.5V76.5c1-0.2,2.5-0.3,4.2-0.3c2,0,3.4,0.3,4.4,1
			c0.8,0.6,1.3,1.6,1.3,2.8c0,1.6-1.2,2.8-2.2,3.2v0.1C93.8,83.7,94.3,84.6,94.6,85.7z M100.6,122.2c-0.2-0.4-0.5-1.4-0.9-3
			c-0.4-1.6-0.8-1.9-1.9-1.9h-0.6v4.9h-3.5v-12.9c1-0.2,2.5-0.3,4.2-0.3c2,0,3.4,0.3,4.4,1c0.8,0.6,1.3,1.6,1.3,2.8
			c0,1.6-1.2,2.8-2.2,3.2v0.1c0.9,0.4,1.3,1.2,1.7,2.4c0.4,1.3,0.8,3.2,1.1,3.8H100.6z M116.9,121.6c-1,0.3-2.8,0.7-4.5,0.7
			c-2.6,0-4.3-0.6-5.5-1.8c-1.2-1.2-1.9-2.9-1.9-4.7c0-4.6,3.4-6.9,7.7-6.9c1.8,0,3.1,0.3,3.8,0.6l-0.7,2.8
			c-0.7-0.3-1.6-0.6-3.1-0.6c-2.2,0-4,1.1-4,3.8c0,2.5,1.6,3.9,3.7,3.9c0.5,0,0.9,0,1.1-0.1v-2.3h-1.8v-2.7h5.1V121.6z M111.6,106
			c-1.6,0-3.1-0.4-3.9-0.8l0.7-2.9c0.8,0.4,2.1,0.8,3.4,0.8c1.2,0,1.8-0.4,1.8-1.1c0-0.6-0.6-1-2.1-1.5c-2.2-0.8-3.7-2-3.7-4
			c0-2.3,2-4.1,5.3-4.1c1.6,0,2.7,0.3,3.5,0.7l-0.7,2.8c-0.6-0.3-1.5-0.6-2.8-0.6c-1.1,0-1.7,0.4-1.7,1c0,0.7,0.7,0.9,2.4,1.5
			c2.4,0.9,3.4,2.1,3.4,4C117.2,104.1,115.4,106,111.6,106z M107.4,60.1c1-0.2,2.3-0.3,4.3-0.3c1.9,0,3.2,0.4,4.2,1.1
			c0.9,0.7,1.5,1.8,1.5,3.2c0,1.3-0.4,2.5-1.3,3.2c-1.1,0.9-2.6,1.4-4.4,1.4c-0.4,0-0.6,0-0.9,0v4.5h-3.5V60.1z M107.2,76.3h10.3v3
			h-3.4v10.2h-3.5V79.3h-3.3V76.3z M106.7,95.7h-3.4v10.2h-3.5V95.7h-3.3v-3h10.3V95.7z M105.5,81.3v2.8h-4.7v2.4h5.3v2.9h-8.8V76.3
			h8.5v2.9h-5v2.1H105.5z M99.1,59.7c4.2,0,6.4,3.1,6.4,6.6c0,4.2-2.5,6.9-6.6,6.9h0c-4.1,0-6.3-3.1-6.3-6.7
			C92.6,62.8,95.1,59.7,99.1,59.7z M81.8,60h10.3v3h-3.4v10.2h-3.5V62.9h-3.3V60z M75.1,67.8c-2.2-0.8-3.7-2-3.7-4
			c0-2.3,2-4.1,5.3-4.1c1.6,0,2.7,0.3,3.5,0.7l-0.7,2.8c-0.6-0.3-1.5-0.6-2.8-0.6c-1.1,0-1.7,0.4-1.7,1c0,0.7,0.7,0.9,2.4,1.5
			c2.4,0.9,3.4,2.1,3.4,4c0,2.3-1.8,4.2-5.6,4.2c-1.6,0-3.1-0.4-3.9-0.8l0.7-2.9c0.8,0.4,2.1,0.8,3.4,0.8c1.2,0,1.8-0.4,1.8-1.1
			C77.2,68.7,76.6,68.3,75.1,67.8z M62.8,76.3h8.5v2.9h-5v2.1H71v2.8h-4.7v2.4h5.3v2.9h-8.8V76.3z M55.2,84.2c-2.2-0.8-3.7-2-3.7-4
			c0-2.3,2-4.1,5.3-4.1c1.6,0,2.7,0.3,3.5,0.7l-0.7,2.8C59,79.4,58.1,79,56.8,79c-1.1,0-1.7,0.4-1.7,1c0,0.7,0.7,0.9,2.4,1.5
			c2.4,0.9,3.4,2.1,3.4,4c0,2.3-1.8,4.2-5.6,4.2c-1.6,0-3.1-0.4-3.9-0.8l0.7-2.9c0.8,0.4,2.1,0.8,3.4,0.8c1.2,0,1.8-0.4,1.8-1.1
			C57.3,85.1,56.7,84.7,55.2,84.2z M48.7,92.7H59v3h-3.4v10.2h-3.5V95.7h-3.3V92.7z M35.8,92.7H40l2.1,4c0.7,1.3,1.5,3.1,2.1,4.6
			h0.1c-0.2-1.7-0.3-3.6-0.3-5.5v-3.1h3.2v13.1h-3.7l-2.2-4.4c-0.7-1.4-1.6-3.2-2.2-4.7h-0.1c0.1,1.8,0.1,3.7,0.1,5.9v3.2h-3.2V92.7
			z M27.6,92.5c4.2,0,6.4,3.1,6.4,6.6c0,4.2-2.5,6.9-6.6,6.9h0c-4.1,0-6.3-3.1-6.3-6.7C21.1,95.5,23.5,92.5,27.6,92.5z M17.3,92.5
			c1.5,0,2.7,0.3,3.3,0.6l-0.7,2.8c-0.6-0.2-1.4-0.5-2.4-0.5c-2,0-3.8,1.2-3.8,3.9c0,2.4,1.4,3.9,3.8,3.9c0.8,0,1.8-0.2,2.3-0.4
			l0.5,2.7c-0.5,0.3-1.7,0.5-3.3,0.5c-4.9,0-7.1-3.1-7.1-6.5C10,94.9,13.4,92.5,17.3,92.5z"/>
	</g>
	<path fill="#FFFFFF" d="M98.3,111.6c-0.7,0-1,0-1.2,0.1v3.1h0.9c1.3,0,2.1-0.6,2.1-1.6S99.5,111.6,98.3,111.6z"/>
</g>
</svg>
